<?xml version="1.0" standalone="no"?>
<!DOCTYPE svg PUBLIC "-//W3C//DTD SVG 20010904//EN"
 "http://www.w3.org/TR/2001/REC-SVG-20010904/DTD/svg10.dtd">
<svg version="1.0" xmlns="http://www.w3.org/2000/svg"
 width="512.000000pt" height="512.000000pt" viewBox="0 0 512.000000 512.000000"
 preserveAspectRatio="xMidYMid meet">
<metadata>
Created by potrace 1.14, written by Peter Selinger 2001-2017
</metadata>
<g transform="translate(0.000000,512.000000) scale(0.100000,-0.100000)"
fill="#000000" stroke="none">
<path d="M3406 3645 l-41 -45 -485 -74 c-267 -41 -782 -120 -1145 -176 -893
-136 -866 -131 -897 -147 -51 -25 -62 -54 -55 -144 7 -86 29 -168 257 -969 76
-267 155 -543 175 -615 62 -224 80 -254 173 -281 115 -34 241 21 258 112 3 19
10 34 15 34 22 0 500 87 934 171 758 146 810 155 1030 194 l210 38 33 -31
c103 -96 314 -52 339 69 3 18 13 29 28 33 61 15 115 127 115 239 0 58 -6 71
-172 391 -389 752 -608 1179 -608 1186 0 5 -14 20 -31 34 -47 40 -84 35 -133
-19z m-60 -87 c-9 -12 -16 -32 -16 -44 0 -17 -9 -25 -34 -34 -48 -15 -73 -48
-83 -105 -14 -90 5 -129 59 -118 17 3 29 2 26 -3 -2 -5 -15 -31 -28 -59 -21
-44 -24 -69 -29 -210 -6 -152 -7 -162 -33 -201 -29 -45 -78 -87 -177 -154 -57
-38 -65 -41 -87 -29 -34 18 -41 4 -10 -17 l27 -17 -66 -44 c-36 -24 -65 -49
-65 -56 -1 -12 -80 -77 -95 -77 -4 0 -30 16 -56 35 -49 35 -63 37 -34 5 12
-13 13 -23 5 -44 -14 -38 -13 -49 6 -42 11 4 18 -1 21 -14 6 -24 6 -24 46 -4
44 22 67 44 67 63 0 17 69 71 90 71 7 0 29 -9 49 -21 l36 -21 -29 26 -30 25
25 20 c13 11 27 20 32 21 4 0 7 11 7 24 0 17 10 31 30 43 17 9 30 20 30 24 0
4 36 33 80 63 44 31 80 61 80 66 0 6 5 10 10 10 19 0 12 -163 -10 -231 -73
-232 -317 -429 -632 -509 -245 -62 -477 -62 -719 -1 -206 52 -357 136 -490
271 -116 118 -168 238 -169 385 -1 242 157 448 453 591 51 25 81 42 67 39 -58
-14 -270 -129 -340 -184 -267 -212 -352 -510 -220 -770 40 -81 128 -188 199
-245 53 -43 59 -51 44 -59 -34 -18 -43 -40 -43 -104 0 -51 4 -66 22 -82 29
-27 78 -36 123 -21 48 16 68 48 59 94 -7 40 -4 42 34 22 62 -32 239 -86 349
-107 165 -31 390 -31 558 0 286 53 527 174 679 343 183 201 222 426 117 661
-17 37 -27 67 -23 68 4 1 50 2 102 3 157 3 257 53 306 151 14 31 24 58 21 61
-3 3 -13 -11 -22 -31 -48 -100 -177 -152 -361 -146 -40 1 -42 3 -46 36 l-4 36
56 -7 c152 -17 301 73 288 174 -4 27 -4 27 -20 -9 -30 -68 -119 -109 -238
-109 -76 0 -90 9 -81 53 7 30 9 32 48 29 56 -4 115 13 140 40 16 18 23 46 32
127 7 63 17 111 26 121 8 9 27 44 43 79 l29 64 143 -279 c79 -153 241 -469
361 -701 238 -458 248 -484 195 -518 -15 -10 -173 -41 -403 -80 -208 -36 -468
-81 -578 -100 -110 -20 -396 -69 -635 -110 -239 -42 -469 -82 -510 -90 -41 -7
-242 -41 -447 -75 -380 -62 -424 -65 -445 -30 -4 8 -55 176 -113 373 -58 196
-153 518 -211 715 -59 196 -111 376 -117 398 -12 52 -3 89 27 109 14 10 203
43 512 90 269 42 822 127 1229 189 407 63 748 114 758 115 17 1 17 -1 3 -21z
m123 7 c32 -16 41 -33 41 -75 0 -44 -23 -56 -59 -29 -24 18 -29 28 -26 48 5
26 5 26 -6 4 -16 -30 -79 -33 -79 -5 0 33 44 71 83 72 10 0 31 -7 46 -15z
m-16 -217 c-30 -29 -123 -37 -177 -14 -22 9 -37 18 -34 21 3 3 19 -2 37 -11
42 -21 144 -15 168 9 10 9 20 17 22 17 3 0 -4 -10 -16 -22z m-116 -134 c-3 -3
-12 -4 -19 -1 -8 3 -5 6 6 6 11 1 17 -2 13 -5z m-95 -584 c2 -223 -157 -433
-427 -567 -125 -63 -338 -124 -425 -122 -21 1 -4 6 45 15 267 47 469 145 621
299 133 136 202 332 164 464 -5 19 -6 39 -3 45 12 19 25 -48 25 -134z m-1774
-727 c-10 -2 -26 -2 -35 0 -10 3 -2 5 17 5 19 0 27 -2 18 -5z"/>
<path d="M2725 3385 c-22 -8 -41 -15 -42 -15 -2 0 -3 -5 -3 -11 0 -12 136 -4
174 11 18 6 15 9 -19 19 -50 14 -61 13 -110 -4z"/>
<path d="M2383 3353 c9 -2 23 -2 30 0 6 3 -1 5 -18 5 -16 0 -22 -2 -12 -5z"/>
<path d="M2443 3343 c9 -2 23 -2 30 0 6 3 -1 5 -18 5 -16 0 -22 -2 -12 -5z"/>
<path d="M2581 3311 c241 -69 467 -223 574 -394 17 -26 33 -47 38 -47 4 0 7
22 7 49 0 47 -2 50 -73 118 -41 38 -94 83 -118 100 -115 80 -275 150 -417 183
-118 28 -124 24 -11 -9z"/>
<path d="M3170 3262 c0 -28 7 -45 24 -61 l24 -23 12 22 c10 18 8 24 -14 41
-14 11 -26 27 -26 34 0 8 -4 17 -10 20 -6 4 -10 -9 -10 -33z"/>
<path d="M3026 3274 c-11 -28 -6 -94 8 -123 19 -36 80 -90 122 -107 44 -18 44
-18 44 11 0 19 -10 30 -48 49 -83 42 -119 95 -113 164 2 26 -4 29 -13 6z"/>
<path d="M984 3076 c-18 -14 -18 -16 -1 -33 16 -17 17 -16 17 9 0 14 6 29 13
31 6 3 7 6 1 6 -5 1 -19 -5 -30 -13z"/>
<path d="M1074 3077 c16 -11 17 -17 7 -36 -12 -21 -11 -22 8 -11 26 14 27 36
2 50 -28 14 -38 12 -17 -3z"/>
<path d="M2123 2930 c-104 -22 -211 -98 -234 -167 -78 -238 350 -395 568 -208
135 115 80 292 -110 358 -62 21 -167 29 -224 17z m122 -190 c8 0 20 -10 26
-22 10 -19 8 -25 -16 -46 -22 -18 -35 -22 -58 -18 -60 12 -75 54 -29 84 20 13
22 13 22 -7 0 -12 -4 -19 -10 -16 -6 3 -7 -1 -4 -9 9 -24 24 -19 24 8 0 13 3
32 6 41 6 16 8 16 16 1 5 -9 15 -16 23 -16z"/>
<path d="M3668 2896 c-98 -15 -116 -31 -23 -21 145 17 131 23 191 -90 30 -55
55 -104 57 -110 3 -5 8 -7 12 -3 4 4 -21 59 -55 122 -69 130 -54 122 -182 102z"/>
<path d="M3808 2700 c9 -22 20 -40 25 -40 4 0 -2 18 -13 40 -26 52 -33 52 -12
0z"/>
<path d="M3873 2643 c-39 -4 -43 -7 -43 -32 0 -28 0 -28 48 -21 26 5 51 5 56
3 13 -8 -16 -23 -46 -23 -32 0 -58 -9 -58 -20 0 -5 12 -8 27 -7 24 2 31 -5 56
-58 16 -33 32 -54 34 -47 3 7 -7 33 -22 58 -15 25 -25 47 -23 48 1 2 12 8 24
14 19 10 25 1 89 -121 77 -149 73 -142 81 -134 3 3 -30 77 -75 163 -45 87 -81
163 -81 171 0 7 -6 12 -12 11 -7 -1 -32 -3 -55 -5z"/>
<path d="M3795 2630 c3 -5 8 -10 11 -10 2 0 4 5 4 10 0 6 -5 10 -11 10 -5 0
-7 -4 -4 -10z"/>
<path d="M2780 2511 c0 -11 26 -22 34 -14 12 12 5 23 -14 23 -11 0 -20 -4 -20
-9z"/>
<path d="M1311 1730 c0 -8 4 -24 9 -35 5 -13 9 -14 9 -5 0 8 -4 24 -9 35 -5
13 -9 14 -9 5z"/>
<path d="M1895 1720 l-30 -8 27 -1 c15 0 30 4 33 9 3 6 5 9 3 9 -2 -1 -16 -5
-33 -9z"/>
<path d="M1710 1690 c-34 -7 -34 -7 -5 -8 17 0 41 4 55 8 33 11 0 11 -50 0z"/>
<path d="M1520 1660 c-52 -9 -112 -20 -133 -24 -33 -6 -38 -4 -47 16 -9 20
-10 19 -4 -7 3 -16 7 -31 9 -33 5 -5 260 41 269 49 18 16 1 15 -94 -1z"/>
</g>
</svg>
